<svg 
 xmlns="http://www.w3.org/2000/svg"
 xmlns:xlink="http://www.w3.org/1999/xlink"
 width="44px" height="39px">
<path fill-rule="evenodd"  fill="rgb(255, 255, 255)"
 d="M41.000,39.000 L3.000,39.000 C1.343,39.000 0.000,37.657 0.000,36.000 L0.000,35.000 C0.000,33.343 1.343,32.000 3.000,32.000 L41.000,32.000 C42.657,32.000 44.000,33.343 44.000,35.000 L44.000,36.000 C44.000,37.657 42.657,39.000 41.000,39.000 ZM41.000,23.000 L3.000,23.000 C1.343,23.000 0.000,21.657 0.000,20.000 L0.000,19.000 C0.000,17.343 1.343,16.000 3.000,16.000 L41.000,16.000 C42.657,16.000 44.000,17.343 44.000,19.000 L44.000,20.000 C44.000,21.657 42.657,23.000 41.000,23.000 ZM41.000,7.000 L3.000,7.000 C1.343,7.000 0.000,5.657 0.000,4.000 L0.000,3.000 C0.000,1.343 1.343,0.000 3.000,0.000 L41.000,0.000 C42.657,0.000 44.000,1.343 44.000,3.000 L44.000,4.000 C44.000,5.657 42.657,7.000 41.000,7.000 Z"/>
</svg>